<svg width="282" height="280" viewBox="0 0 282 280" fill="none" xmlns="http://www.w3.org/2000/svg">
    <path d="M281.073 0H0v280h281.073V0z" fill="#fff"/>
    <mask id="vqqcul9p8a" style="mask-type:luminance" maskUnits="userSpaceOnUse" x="0" y="0" width="281" height="280">
        <path d="M6.833 61.261H0v6.807h6.833V61.26zM6.833 68.068H0v6.807h6.833v-6.807zM6.833 74.875H0v6.806h6.833v-6.806zM6.833 81.681H0v6.807h6.833v-6.807zM6.833 95.295H0v6.807h6.833v-6.807zM6.833 108.909H0v6.806h6.833v-6.806zM6.833 115.715H0v6.807h6.833v-6.807zM6.833 122.522H0v6.807h6.833v-6.807zM6.833 129.329H0v6.807h6.833v-6.807zM6.833 142.943H0v6.806h6.833v-6.806z" fill="#fff"/>
        <path d="M6.833 149.749H0v6.807h6.833v-6.807zM6.833 170.17H0v6.806h6.833v-6.806zM6.833 190.59H0v6.807h6.833v-6.807zM6.833 197.397H0v6.807h6.833v-6.807zM6.833 204.204H0v6.806h6.833v-6.806zM6.833 217.817H0v6.807h6.833v-6.807zM13.666 54.454H6.833v6.807h6.833v-6.807z" fill="#fff"/>
        <path d="M13.666 61.261H6.833v6.807h6.833V61.26zM13.666 68.068H6.833v6.807h6.833v-6.807zM13.666 88.488H6.833v6.807h6.833v-6.807zM13.666 95.295H6.833v6.807h6.833v-6.807zM13.666 102.102H6.833v6.807h6.833v-6.807zM13.666 108.909H6.833v6.806h6.833v-6.806zM13.666 142.943H6.833v6.806h6.833v-6.806zM13.666 170.17H6.833v6.806h6.833v-6.806zM13.666 176.976H6.833v6.807h6.833v-6.807zM13.666 211.01H6.833v6.807h6.833v-6.807zM13.666 217.817H6.833v6.807h6.833v-6.807zM20.498 68.068h-6.832v6.807h6.832v-6.807zM20.498 108.909h-6.832v6.806h6.832v-6.806zM20.498 122.522h-6.832v6.807h6.832v-6.807zM20.498 136.136h-6.832v6.807h6.832v-6.807zM20.498 149.749h-6.832v6.807h6.832v-6.807zM20.498 156.556h-6.832v6.807h6.832v-6.807zM20.498 170.17h-6.832v6.806h6.832v-6.806zM20.498 176.976h-6.832v6.807h6.832v-6.807zM20.498 190.59h-6.832v6.807h6.832v-6.807zM20.498 217.817h-6.832v6.807h6.832v-6.807zM27.331 54.454H20.5v6.807h6.832v-6.807z" fill="#fff"/>
        <path d="M27.331 61.261H20.5v6.807h6.832V61.26zM27.331 81.681H20.5v6.807h6.832v-6.807zM27.331 102.102H20.5v6.807h6.832v-6.807zM27.331 115.715H20.5v6.807h6.832v-6.807zM27.331 129.329H20.5v6.807h6.832v-6.807zM27.331 156.556H20.5v6.807h6.832v-6.807zM27.331 163.363H20.5v6.807h6.832v-6.807zM27.331 176.976H20.5v6.807h6.832v-6.807zM27.331 190.59H20.5v6.807h6.832v-6.807zM27.331 197.397H20.5v6.807h6.832v-6.807zM27.331 211.01H20.5v6.807h6.832v-6.807z" fill="#fff"/>
        <path d="M34.164 54.454h-6.833v6.807h6.833v-6.807zM34.164 81.681h-6.833v6.807h6.833v-6.807zM34.164 108.909h-6.833v6.806h6.833v-6.806zM34.164 115.715h-6.833v6.807h6.833v-6.807zM34.164 156.556h-6.833v6.807h6.833v-6.807zM34.164 190.59h-6.833v6.807h6.833v-6.807zM34.164 197.397h-6.833v6.807h6.833v-6.807zM34.164 204.204h-6.833v6.806h6.833v-6.806z" fill="#fff"/>
        <path d="M34.164 211.01h-6.833v6.807h6.833v-6.807zM40.997 68.068h-6.833v6.807h6.833v-6.807zM40.997 81.681h-6.833v6.807h6.833v-6.807zM40.997 88.488h-6.833v6.807h6.833v-6.807zM40.997 102.102h-6.833v6.807h6.833v-6.807zM40.997 115.715h-6.833v6.807h6.833v-6.807zM40.997 129.329h-6.833v6.807h6.833v-6.807zM40.997 136.136h-6.833v6.807h6.833v-6.807zM40.997 156.556h-6.833v6.807h6.833v-6.807zM40.997 190.59h-6.833v6.807h6.833v-6.807zM40.997 197.397h-6.833v6.807h6.833v-6.807zM40.997 204.204h-6.833v6.806h6.833v-6.806zM40.997 217.817h-6.833v6.807h6.833v-6.807zM47.83 54.454h-6.833v6.807h6.833v-6.807zM47.83 68.068h-6.833v6.807h6.833v-6.807zM47.83 81.681h-6.833v6.807h6.833v-6.807zM47.83 95.295h-6.833v6.807h6.833v-6.807zM47.83 108.909h-6.833v6.806h6.833v-6.806zM47.83 122.522h-6.833v6.807h6.833v-6.807zM47.83 136.136h-6.833v6.807h6.833v-6.807zM47.83 149.749h-6.833v6.807h6.833v-6.807zM47.83 163.363h-6.833v6.807h6.833v-6.807zM47.83 176.976h-6.833v6.807h6.833v-6.807zM47.83 190.59h-6.833v6.807h6.833v-6.807zM47.83 204.204h-6.833v6.806h6.833v-6.806zM47.83 217.817h-6.833v6.807h6.833v-6.807zM54.663 54.454H47.83v6.807h6.833v-6.807z" fill="#fff"/>
        <path d="M54.663 61.261H47.83v6.807h6.833V61.26zM54.663 81.681H47.83v6.807h6.833v-6.807zM54.663 88.488H47.83v6.807h6.833v-6.807zM54.663 108.909H47.83v6.806h6.833v-6.806zM54.663 122.522H47.83v6.807h6.833v-6.807zM54.663 129.329H47.83v6.807h6.833v-6.807zM54.663 163.363H47.83v6.807h6.833v-6.807zM54.663 170.17H47.83v6.806h6.833v-6.806zM54.663 211.01H47.83v6.807h6.833v-6.807zM54.663 217.817H47.83v6.807h6.833v-6.807zM61.496 6.807h-6.833v6.807h6.833V6.807zM61.496 20.42h-6.833v6.807h6.833V20.42z" fill="#fff"/>
        <path d="M61.496 27.227h-6.833v6.807h6.833v-6.807zM61.496 34.034h-6.833v6.807h6.833v-6.807z" fill="#fff"/>
        <path d="M61.496 40.84h-6.833v6.807h6.833v-6.806zM61.496 54.454h-6.833v6.807h6.833v-6.807z" fill="#fff"/>
        <path d="M61.496 61.261h-6.833v6.807h6.833V61.26zM61.496 74.875h-6.833v6.806h6.833v-6.806zM61.496 108.909h-6.833v6.806h6.833v-6.806zM61.496 115.715h-6.833v6.807h6.833v-6.807zM61.496 129.329h-6.833v6.807h6.833v-6.807zM61.496 136.136h-6.833v6.807h6.833v-6.807zM61.496 142.943h-6.833v6.806h6.833v-6.806z" fill="#fff"/>
        <path d="M61.496 149.749h-6.833v6.807h6.833v-6.807zM61.496 163.363h-6.833v6.807h6.833v-6.807zM61.496 176.976h-6.833v6.807h6.833v-6.807zM61.496 190.59h-6.833v6.807h6.833v-6.807zM61.496 197.397h-6.833v6.807h6.833v-6.807zM61.496 211.01h-6.833v6.807h6.833v-6.807zM61.496 224.624h-6.833v6.807h6.833v-6.807zM61.496 231.431h-6.833v6.807h6.833v-6.807zM61.496 245.044h-6.833v6.807h6.833v-6.807zM61.496 251.851h-6.833v6.807h6.833v-6.807zM61.496 265.465h-6.833v6.806h6.833v-6.806zM68.329 20.42h-6.833v6.807h6.833V20.42zM68.329 34.034h-6.833v6.807h6.833v-6.807zM68.329 61.261h-6.833v6.807h6.833V61.26zM68.329 74.875h-6.833v6.806h6.833v-6.806zM68.329 95.295h-6.833v6.807h6.833v-6.807zM68.329 102.102h-6.833v6.807h6.833v-6.807z" fill="#fff"/>
        <path d="M68.329 142.943h-6.833v6.806h6.833v-6.806zM68.329 156.556h-6.833v6.807h6.833v-6.807zM68.329 163.363h-6.833v6.807h6.833v-6.807zM68.329 183.783h-6.833v6.807h6.833v-6.807zM68.329 211.01h-6.833v6.807h6.833v-6.807zM68.329 238.238h-6.833v6.806h6.833v-6.806zM68.329 245.044h-6.833v6.807h6.833v-6.807zM68.329 265.465h-6.833v6.806h6.833v-6.806zM75.162 0h-6.833v6.807h6.833V0zM75.162 13.614h-6.833v6.806h6.833v-6.806zM75.162 27.227h-6.833v6.807h6.833v-6.807zM75.162 40.84h-6.833v6.807h6.833v-6.806zM75.162 74.875h-6.833v6.806h6.833v-6.806zM75.162 81.681h-6.833v6.807h6.833v-6.807zM75.162 95.295h-6.833v6.807h6.833v-6.807zM75.162 115.715h-6.833v6.807h6.833v-6.807zM75.162 129.329h-6.833v6.807h6.833v-6.807zM75.162 136.136h-6.833v6.807h6.833v-6.807zM75.162 149.749h-6.833v6.807h6.833v-6.807zM75.162 183.783h-6.833v6.807h6.833v-6.807zM75.162 197.397h-6.833v6.807h6.833v-6.807zM75.162 204.204h-6.833v6.806h6.833v-6.806zM75.162 238.238h-6.833v6.806h6.833v-6.806zM75.162 245.044h-6.833v6.807h6.833v-6.807zM75.162 258.658h-6.833v6.807h6.833v-6.807z" fill="#fff"/>
        <path d="M75.162 265.465h-6.833v6.806h6.833v-6.806zM81.994 0h-6.832v6.807h6.832V0zM81.994 6.807h-6.832v6.807h6.832V6.807zM81.994 13.614h-6.832v6.806h6.832v-6.806zM81.994 27.227h-6.832v6.807h6.832v-6.807zM81.994 54.454h-6.832v6.807h6.832v-6.807zM81.994 68.068h-6.832v6.807h6.832v-6.807zM81.994 74.875h-6.832v6.806h6.832v-6.806zM81.994 81.681h-6.832v6.807h6.832v-6.807zM81.994 88.488h-6.832v6.807h6.832v-6.807zM81.994 102.102h-6.832v6.807h6.832v-6.807zM81.994 108.909h-6.832v6.806h6.832v-6.806zM81.994 115.715h-6.832v6.807h6.832v-6.807zM81.994 122.522h-6.832v6.807h6.832v-6.807zM81.994 129.329h-6.832v6.807h6.832v-6.807zM81.994 156.556h-6.832v6.807h6.832v-6.807zM81.994 176.976h-6.832v6.807h6.832v-6.807zM81.994 183.783h-6.832v6.807h6.832v-6.807zM81.994 197.397h-6.832v6.807h6.832v-6.807zM81.994 204.204h-6.832v6.806h6.832v-6.806z" fill="#fff"/>
        <path d="M81.994 211.01h-6.832v6.807h6.832v-6.807zM81.994 217.817h-6.832v6.807h6.832v-6.807zM81.994 231.431h-6.832v6.807h6.832v-6.807zM81.994 251.851h-6.832v6.807h6.832v-6.807zM81.994 272.271h-6.832v6.807h6.832v-6.807zM88.827 0h-6.833v6.807h6.833V0zM88.827 13.614h-6.833v6.806h6.833v-6.806zM88.827 20.42h-6.833v6.807h6.833V20.42zM88.827 40.84h-6.833v6.807h6.833v-6.806zM88.827 47.648h-6.833v6.806h6.833v-6.806zM88.827 54.454h-6.833v6.807h6.833v-6.807zM88.827 88.488h-6.833v6.807h6.833v-6.807zM88.827 95.295h-6.833v6.807h6.833v-6.807zM88.827 115.715h-6.833v6.807h6.833v-6.807zM88.827 122.522h-6.833v6.807h6.833v-6.807zM88.827 129.329h-6.833v6.807h6.833v-6.807zM88.827 136.136h-6.833v6.807h6.833v-6.807zM88.827 142.943h-6.833v6.806h6.833v-6.806zM88.827 156.556h-6.833v6.807h6.833v-6.807zM88.827 190.59h-6.833v6.807h6.833v-6.807zM88.827 224.624h-6.833v6.807h6.833v-6.807zM88.827 231.431h-6.833v6.807h6.833v-6.807zM88.827 272.271h-6.833v6.807h6.833v-6.807zM95.66 0h-6.833v6.807h6.833V0zM95.66 13.614h-6.833v6.806h6.833v-6.806zM95.66 20.42h-6.833v6.807h6.833V20.42z" fill="#fff"/>
        <path d="M95.66 27.227h-6.833v6.807h6.833v-6.807zM95.66 47.648h-6.833v6.806h6.833v-6.806zM95.66 54.454h-6.833v6.807h6.833v-6.807zM95.66 81.681h-6.833v6.807h6.833v-6.807zM95.66 95.295h-6.833v6.807h6.833v-6.807zM95.66 108.909h-6.833v6.806h6.833v-6.806zM95.66 115.715h-6.833v6.807h6.833v-6.807zM95.66 122.522h-6.833v6.807h6.833v-6.807zM95.66 136.136h-6.833v6.807h6.833v-6.807zM95.66 149.749h-6.833v6.807h6.833v-6.807zM95.66 163.363h-6.833v6.807h6.833v-6.807zM95.66 190.59h-6.833v6.807h6.833v-6.807zM95.66 197.397h-6.833v6.807h6.833v-6.807zM95.66 224.624h-6.833v6.807h6.833v-6.807zM95.66 231.431h-6.833v6.807h6.833v-6.807zM95.66 238.238h-6.833v6.806h6.833v-6.806zM95.66 245.044h-6.833v6.807h6.833v-6.807zM95.66 251.851h-6.833v6.807h6.833v-6.807zM95.66 258.658h-6.833v6.807h6.833v-6.807zM95.66 272.271h-6.833v6.807h6.833v-6.807zM102.493 6.807H95.66v6.807h6.833V6.807zM102.493 13.614H95.66v6.806h6.833v-6.806zM102.493 20.42H95.66v6.807h6.833V20.42zM102.493 34.034H95.66v6.807h6.833v-6.807z" fill="#fff"/>
        <path d="M102.493 40.84H95.66v6.807h6.833v-6.806zM102.493 54.454H95.66v6.807h6.833v-6.807z" fill="#fff"/>
        <path d="M102.493 61.261H95.66v6.807h6.833V61.26zM102.493 68.068H95.66v6.807h6.833v-6.807zM102.493 81.681H95.66v6.807h6.833v-6.807zM102.493 88.488H95.66v6.807h6.833v-6.807zM102.493 95.295H95.66v6.807h6.833v-6.807zM102.493 102.102H95.66v6.807h6.833v-6.807zM102.493 136.136H95.66v6.807h6.833v-6.807zM102.493 142.943H95.66v6.806h6.833v-6.806zM102.493 170.17H95.66v6.806h6.833v-6.806zM102.493 190.59H95.66v6.807h6.833v-6.807zM102.493 197.397H95.66v6.807h6.833v-6.807zM102.493 211.01H95.66v6.807h6.833v-6.807zM102.493 224.624H95.66v6.807h6.833v-6.807zM102.493 231.431H95.66v6.807h6.833v-6.807zM102.493 238.238H95.66v6.806h6.833v-6.806zM102.493 258.658H95.66v6.807h6.833v-6.807zM102.493 272.271H95.66v6.807h6.833v-6.807zM109.326 0h-6.833v6.807h6.833V0zM109.326 6.807h-6.833v6.807h6.833V6.807zM109.326 34.034h-6.833v6.807h6.833v-6.807zM109.326 47.648h-6.833v6.806h6.833v-6.806zM109.326 54.454h-6.833v6.807h6.833v-6.807zM109.326 68.068h-6.833v6.807h6.833v-6.807zM109.326 102.102h-6.833v6.807h6.833v-6.807zM109.326 115.715h-6.833v6.807h6.833v-6.807zM109.326 149.749h-6.833v6.807h6.833v-6.807zM109.326 163.363h-6.833v6.807h6.833v-6.807zM109.326 183.783h-6.833v6.807h6.833v-6.807zM109.326 211.01h-6.833v6.807h6.833v-6.807zM109.326 224.624h-6.833v6.807h6.833v-6.807zM109.326 238.238h-6.833v6.806h6.833v-6.806zM109.326 251.851h-6.833v6.807h6.833v-6.807zM109.326 258.658h-6.833v6.807h6.833v-6.807zM109.326 272.271h-6.833v6.807h6.833v-6.807zM116.159 0h-6.833v6.807h6.833V0zM116.159 6.807h-6.833v6.807h6.833V6.807zM116.159 20.42h-6.833v6.807h6.833V20.42zM116.159 34.034h-6.833v6.807h6.833v-6.807z" fill="#fff"/>
        <path d="M116.159 40.84h-6.833v6.807h6.833v-6.806zM116.159 61.261h-6.833v6.807h6.833V61.26zM116.159 74.875h-6.833v6.806h6.833v-6.806zM116.159 88.488h-6.833v6.807h6.833v-6.807zM116.159 115.715h-6.833v6.807h6.833v-6.807zM116.159 122.522h-6.833v6.807h6.833v-6.807zM116.159 142.943h-6.833v6.806h6.833v-6.806zM116.159 156.556h-6.833v6.807h6.833v-6.807zM116.159 170.17h-6.833v6.806h6.833v-6.806zM116.159 176.976h-6.833v6.807h6.833v-6.807zM116.159 190.59h-6.833v6.807h6.833v-6.807zM116.159 217.817h-6.833v6.807h6.833v-6.807zM116.159 224.624h-6.833v6.807h6.833v-6.807zM116.159 272.271h-6.833v6.807h6.833v-6.807zM122.992 0h-6.833v6.807h6.833V0zM122.992 34.034h-6.833v6.807h6.833v-6.807zM122.992 47.648h-6.833v6.806h6.833v-6.806zM122.992 54.454h-6.833v6.807h6.833v-6.807z" fill="#fff"/>
        <path d="M122.992 61.261h-6.833v6.807h6.833V61.26zM122.992 74.875h-6.833v6.806h6.833v-6.806zM122.992 81.681h-6.833v6.807h6.833v-6.807zM122.992 102.102h-6.833v6.807h6.833v-6.807zM122.992 108.909h-6.833v6.806h6.833v-6.806zM122.992 122.522h-6.833v6.807h6.833v-6.807zM122.992 142.943h-6.833v6.806h6.833v-6.806zM122.992 163.363h-6.833v6.807h6.833v-6.807zM122.992 170.17h-6.833v6.806h6.833v-6.806zM122.992 176.976h-6.833v6.807h6.833v-6.807zM122.992 183.783h-6.833v6.807h6.833v-6.807zM122.992 190.59h-6.833v6.807h6.833v-6.807zM122.992 204.204h-6.833v6.806h6.833v-6.806z" fill="#fff"/>
        <path d="M122.992 211.01h-6.833v6.807h6.833v-6.807zM122.992 217.817h-6.833v6.807h6.833v-6.807zM122.992 224.624h-6.833v6.807h6.833v-6.807zM122.992 245.044h-6.833v6.807h6.833v-6.807zM129.824 6.807h-6.832v6.807h6.832V6.807zM129.824 13.614h-6.832v6.806h6.832v-6.806zM129.824 27.227h-6.832v6.807h6.832v-6.807zM129.824 34.034h-6.832v6.807h6.832v-6.807z" fill="#fff"/>
        <path d="M129.824 40.84h-6.832v6.807h6.832v-6.806zM129.824 47.648h-6.832v6.806h6.832v-6.806zM129.824 54.454h-6.832v6.807h6.832v-6.807zM129.824 68.068h-6.832v6.807h6.832v-6.807zM129.824 74.875h-6.832v6.806h6.832v-6.806zM129.824 81.681h-6.832v6.807h6.832v-6.807zM129.824 88.488h-6.832v6.807h6.832v-6.807zM129.824 115.715h-6.832v6.807h6.832v-6.807zM129.824 149.749h-6.832v6.807h6.832v-6.807zM129.824 156.556h-6.832v6.807h6.832v-6.807zM129.824 163.363h-6.832v6.807h6.832v-6.807zM129.824 183.783h-6.832v6.807h6.832v-6.807zM129.824 211.01h-6.832v6.807h6.832v-6.807zM129.824 217.817h-6.832v6.807h6.832v-6.807zM129.824 231.431h-6.832v6.807h6.832v-6.807zM129.824 238.238h-6.832v6.806h6.832v-6.806zM129.824 245.044h-6.832v6.807h6.832v-6.807zM129.824 258.658h-6.832v6.807h6.832v-6.807zM129.824 272.271h-6.832v6.807h6.832v-6.807zM136.657 6.807h-6.833v6.807h6.833V6.807zM136.657 13.614h-6.833v6.806h6.833v-6.806zM136.657 61.261h-6.833v6.807h6.833V61.26zM136.657 68.068h-6.833v6.807h6.833v-6.807zM136.657 81.681h-6.833v6.807h6.833v-6.807zM136.657 88.488h-6.833v6.807h6.833v-6.807zM136.657 102.102h-6.833v6.807h6.833v-6.807zM136.657 108.909h-6.833v6.806h6.833v-6.806zM136.657 122.522h-6.833v6.807h6.833v-6.807zM136.657 129.329h-6.833v6.807h6.833v-6.807zM136.657 163.363h-6.833v6.807h6.833v-6.807zM136.657 176.976h-6.833v6.807h6.833v-6.807zM136.657 183.783h-6.833v6.807h6.833v-6.807zM136.657 217.817h-6.833v6.807h6.833v-6.807zM136.657 224.624h-6.833v6.807h6.833v-6.807zM136.657 245.044h-6.833v6.807h6.833v-6.807zM136.657 258.658h-6.833v6.807h6.833v-6.807zM136.657 272.271h-6.833v6.807h6.833v-6.807zM143.49 0h-6.833v6.807h6.833V0zM143.49 13.614h-6.833v6.806h6.833v-6.806zM143.49 20.42h-6.833v6.807h6.833V20.42zM143.49 40.84h-6.833v6.807h6.833v-6.806zM143.49 74.875h-6.833v6.806h6.833v-6.806zM143.49 81.681h-6.833v6.807h6.833v-6.807zM143.49 95.295h-6.833v6.807h6.833v-6.807zM143.49 129.329h-6.833v6.807h6.833v-6.807zM143.49 156.556h-6.833v6.807h6.833v-6.807zM143.49 170.17h-6.833v6.806h6.833v-6.806zM143.49 176.976h-6.833v6.807h6.833v-6.807zM143.49 183.783h-6.833v6.807h6.833v-6.807zM143.49 190.59h-6.833v6.807h6.833v-6.807zM143.49 197.397h-6.833v6.807h6.833v-6.807zM143.49 204.204h-6.833v6.806h6.833v-6.806z" fill="#fff"/>
        <path d="M143.49 211.01h-6.833v6.807h6.833v-6.807zM143.49 231.431h-6.833v6.807h6.833v-6.807zM143.49 238.238h-6.833v6.806h6.833v-6.806zM143.49 258.658h-6.833v6.807h6.833v-6.807zM150.323 0h-6.833v6.807h6.833V0zM150.323 13.614h-6.833v6.806h6.833v-6.806zM150.323 20.42h-6.833v6.807h6.833V20.42zM150.323 61.261h-6.833v6.807h6.833V61.26zM150.323 68.068h-6.833v6.807h6.833v-6.807zM150.323 88.488h-6.833v6.807h6.833v-6.807zM150.323 95.295h-6.833v6.807h6.833v-6.807zM150.323 102.102h-6.833v6.807h6.833v-6.807zM150.323 108.909h-6.833v6.806h6.833v-6.806zM150.323 122.522h-6.833v6.807h6.833v-6.807zM150.323 136.136h-6.833v6.807h6.833v-6.807zM150.323 142.943h-6.833v6.806h6.833v-6.806zM150.323 156.556h-6.833v6.807h6.833v-6.807zM150.323 176.976h-6.833v6.807h6.833v-6.807zM150.323 183.783h-6.833v6.807h6.833v-6.807zM150.323 211.01h-6.833v6.807h6.833v-6.807zM150.323 224.624h-6.833v6.807h6.833v-6.807zM150.323 238.238h-6.833v6.806h6.833v-6.806zM150.323 245.044h-6.833v6.807h6.833v-6.807zM157.156 6.807h-6.833v6.807h6.833V6.807zM157.156 13.614h-6.833v6.806h6.833v-6.806zM157.156 40.84h-6.833v6.807h6.833v-6.806zM157.156 47.648h-6.833v6.806h6.833v-6.806zM157.156 54.454h-6.833v6.807h6.833v-6.807zM157.156 81.681h-6.833v6.807h6.833v-6.807zM157.156 95.295h-6.833v6.807h6.833v-6.807zM157.156 102.102h-6.833v6.807h6.833v-6.807zM157.156 108.909h-6.833v6.806h6.833v-6.806zM157.156 122.522h-6.833v6.807h6.833v-6.807zM157.156 142.943h-6.833v6.806h6.833v-6.806z" fill="#fff"/>
        <path d="M157.156 149.749h-6.833v6.807h6.833v-6.807zM157.156 156.556h-6.833v6.807h6.833v-6.807zM157.156 176.976h-6.833v6.807h6.833v-6.807zM157.156 183.783h-6.833v6.807h6.833v-6.807zM157.156 190.59h-6.833v6.807h6.833v-6.807zM157.156 197.397h-6.833v6.807h6.833v-6.807zM157.156 204.204h-6.833v6.806h6.833v-6.806zM157.156 245.044h-6.833v6.807h6.833v-6.807zM157.156 251.851h-6.833v6.807h6.833v-6.807zM157.156 258.658h-6.833v6.807h6.833v-6.807zM163.989 0h-6.833v6.807h6.833V0zM163.989 6.807h-6.833v6.807h6.833V6.807zM163.989 27.227h-6.833v6.807h6.833v-6.807zM163.989 34.034h-6.833v6.807h6.833v-6.807zM163.989 61.261h-6.833v6.807h6.833V61.26zM163.989 68.068h-6.833v6.807h6.833v-6.807zM163.989 81.681h-6.833v6.807h6.833v-6.807zM163.989 88.488h-6.833v6.807h6.833v-6.807zM163.989 95.295h-6.833v6.807h6.833v-6.807zM163.989 102.102h-6.833v6.807h6.833v-6.807zM163.989 115.715h-6.833v6.807h6.833v-6.807zM163.989 122.522h-6.833v6.807h6.833v-6.807zM163.989 129.329h-6.833v6.807h6.833v-6.807zM163.989 142.943h-6.833v6.806h6.833v-6.806zM163.989 156.556h-6.833v6.807h6.833v-6.807zM163.989 183.783h-6.833v6.807h6.833v-6.807zM163.989 190.59h-6.833v6.807h6.833v-6.807zM163.989 197.397h-6.833v6.807h6.833v-6.807zM163.989 204.204h-6.833v6.806h6.833v-6.806z" fill="#fff"/>
        <path d="M163.989 211.01h-6.833v6.807h6.833v-6.807zM163.989 217.817h-6.833v6.807h6.833v-6.807zM163.989 224.624h-6.833v6.807h6.833v-6.807zM163.989 231.431h-6.833v6.807h6.833v-6.807zM163.989 272.271h-6.833v6.807h6.833v-6.807zM170.822 0h-6.833v6.807h6.833V0zM170.822 6.807h-6.833v6.807h6.833V6.807zM170.822 20.42h-6.833v6.807h6.833V20.42z" fill="#fff"/>
        <path d="M170.822 27.227h-6.833v6.807h6.833v-6.807zM170.822 34.034h-6.833v6.807h6.833v-6.807z" fill="#fff"/>
        <path d="M170.822 40.84h-6.833v6.807h6.833v-6.806zM170.822 54.454h-6.833v6.807h6.833v-6.807z" fill="#fff"/>
        <path d="M170.822 61.261h-6.833v6.807h6.833V61.26zM170.822 68.068h-6.833v6.807h6.833v-6.807zM170.822 88.488h-6.833v6.807h6.833v-6.807zM170.822 95.295h-6.833v6.807h6.833v-6.807zM170.822 108.909h-6.833v6.806h6.833v-6.806zM170.822 122.522h-6.833v6.807h6.833v-6.807zM170.822 163.363h-6.833v6.807h6.833v-6.807zM170.822 183.783h-6.833v6.807h6.833v-6.807zM170.822 190.59h-6.833v6.807h6.833v-6.807zM170.822 217.817h-6.833v6.807h6.833v-6.807zM170.822 231.431h-6.833v6.807h6.833v-6.807zM170.822 238.238h-6.833v6.806h6.833v-6.806zM170.822 272.271h-6.833v6.807h6.833v-6.807zM177.655 6.807h-6.833v6.807h6.833V6.807zM177.655 47.648h-6.833v6.806h6.833v-6.806zM177.655 54.454h-6.833v6.807h6.833v-6.807zM177.655 74.875h-6.833v6.806h6.833v-6.806zM177.655 88.488h-6.833v6.807h6.833v-6.807zM177.655 95.295h-6.833v6.807h6.833v-6.807zM177.655 108.909h-6.833v6.806h6.833v-6.806zM177.655 122.522h-6.833v6.807h6.833v-6.807zM177.655 129.329h-6.833v6.807h6.833v-6.807zM177.655 149.749h-6.833v6.807h6.833v-6.807zM177.655 156.556h-6.833v6.807h6.833v-6.807zM177.655 170.17h-6.833v6.806h6.833v-6.806zM177.655 183.783h-6.833v6.807h6.833v-6.807zM177.655 217.817h-6.833v6.807h6.833v-6.807zM177.655 231.431h-6.833v6.807h6.833v-6.807zM177.655 238.238h-6.833v6.806h6.833v-6.806zM177.655 245.044h-6.833v6.807h6.833v-6.807zM177.655 258.658h-6.833v6.807h6.833v-6.807z" fill="#fff"/>
        <path d="M177.655 265.465h-6.833v6.806h6.833v-6.806zM177.655 272.271h-6.833v6.807h6.833v-6.807zM184.487 0h-6.832v6.807h6.832V0zM184.487 6.807h-6.832v6.807h6.832V6.807zM184.487 34.034h-6.832v6.807h6.832v-6.807z" fill="#fff"/>
        <path d="M184.487 40.84h-6.832v6.807h6.832v-6.806zM184.487 47.648h-6.832v6.806h6.832v-6.806zM184.487 54.454h-6.832v6.807h6.832v-6.807z" fill="#fff"/>
        <path d="M184.487 61.261h-6.832v6.807h6.832V61.26zM184.487 81.681h-6.832v6.807h6.832v-6.807zM184.487 88.488h-6.832v6.807h6.832v-6.807zM184.487 136.136h-6.832v6.807h6.832v-6.807zM184.487 149.749h-6.832v6.807h6.832v-6.807zM184.487 163.363h-6.832v6.807h6.832v-6.807zM184.487 183.783h-6.832v6.807h6.832v-6.807zM184.487 204.204h-6.832v6.806h6.832v-6.806z" fill="#fff"/>
        <path d="M184.487 211.01h-6.832v6.807h6.832v-6.807zM184.487 217.817h-6.832v6.807h6.832v-6.807zM184.487 238.238h-6.832v6.806h6.832v-6.806zM184.487 245.044h-6.832v6.807h6.832v-6.807zM184.487 251.851h-6.832v6.807h6.832v-6.807zM184.487 265.465h-6.832v6.806h6.832v-6.806zM184.487 272.271h-6.832v6.807h6.832v-6.807zM191.32 0h-6.833v6.807h6.833V0zM191.32 6.807h-6.833v6.807h6.833V6.807zM191.32 27.227h-6.833v6.807h6.833v-6.807zM191.32 54.454h-6.833v6.807h6.833v-6.807zM191.32 68.068h-6.833v6.807h6.833v-6.807zM191.32 74.875h-6.833v6.806h6.833v-6.806zM191.32 88.488h-6.833v6.807h6.833v-6.807zM191.32 102.102h-6.833v6.807h6.833v-6.807zM191.32 108.909h-6.833v6.806h6.833v-6.806zM191.32 115.715h-6.833v6.807h6.833v-6.807zM191.32 122.522h-6.833v6.807h6.833v-6.807zM191.32 129.329h-6.833v6.807h6.833v-6.807zM191.32 136.136h-6.833v6.807h6.833v-6.807zM191.32 183.783h-6.833v6.807h6.833v-6.807zM191.32 190.59h-6.833v6.807h6.833v-6.807zM191.32 204.204h-6.833v6.806h6.833v-6.806z" fill="#fff"/>
        <path d="M191.32 211.01h-6.833v6.807h6.833v-6.807zM191.32 224.624h-6.833v6.807h6.833v-6.807zM191.32 231.431h-6.833v6.807h6.833v-6.807zM191.32 238.238h-6.833v6.806h6.833v-6.806zM191.32 251.851h-6.833v6.807h6.833v-6.807zM191.32 258.658h-6.833v6.807h6.833v-6.807z" fill="#fff"/>
        <path d="M191.32 265.465h-6.833v6.806h6.833v-6.806zM191.32 272.271h-6.833v6.807h6.833v-6.807zM198.153 6.807h-6.833v6.807h6.833V6.807zM198.153 20.42h-6.833v6.807h6.833V20.42z" fill="#fff"/>
        <path d="M198.153 27.227h-6.833v6.807h6.833v-6.807zM198.153 40.84h-6.833v6.807h6.833v-6.806zM198.153 74.875h-6.833v6.806h6.833v-6.806zM198.153 81.681h-6.833v6.807h6.833v-6.807zM198.153 88.488h-6.833v6.807h6.833v-6.807zM198.153 122.522h-6.833v6.807h6.833v-6.807zM198.153 129.329h-6.833v6.807h6.833v-6.807zM198.153 149.749h-6.833v6.807h6.833v-6.807zM198.153 163.363h-6.833v6.807h6.833v-6.807zM198.153 170.17h-6.833v6.806h6.833v-6.806zM198.153 183.783h-6.833v6.807h6.833v-6.807zM198.153 204.204h-6.833v6.806h6.833v-6.806z" fill="#fff"/>
        <path d="M198.153 211.01h-6.833v6.807h6.833v-6.807zM198.153 217.817h-6.833v6.807h6.833v-6.807zM198.153 224.624h-6.833v6.807h6.833v-6.807zM198.153 238.238h-6.833v6.806h6.833v-6.806zM198.153 251.851h-6.833v6.807h6.833v-6.807zM204.986 0h-6.833v6.807h6.833V0zM204.986 47.648h-6.833v6.806h6.833v-6.806zM204.986 61.261h-6.833v6.807h6.833V61.26zM204.986 74.875h-6.833v6.806h6.833v-6.806zM204.986 102.102h-6.833v6.807h6.833v-6.807zM204.986 108.909h-6.833v6.806h6.833v-6.806zM204.986 129.329h-6.833v6.807h6.833v-6.807zM204.986 156.556h-6.833v6.807h6.833v-6.807zM204.986 176.976h-6.833v6.807h6.833v-6.807zM204.986 190.59h-6.833v6.807h6.833v-6.807zM204.986 204.204h-6.833v6.806h6.833v-6.806z" fill="#fff"/>
        <path d="M204.986 211.01h-6.833v6.807h6.833v-6.807zM204.986 224.624h-6.833v6.807h6.833v-6.807zM204.986 238.238h-6.833v6.806h6.833v-6.806zM204.986 245.044h-6.833v6.807h6.833v-6.807zM204.986 251.851h-6.833v6.807h6.833v-6.807zM204.986 258.658h-6.833v6.807h6.833v-6.807zM211.819 0h-6.833v6.807h6.833V0zM211.819 6.807h-6.833v6.807h6.833V6.807zM211.819 20.42h-6.833v6.807h6.833V20.42z" fill="#fff"/>
        <path d="M211.819 27.227h-6.833v6.807h6.833v-6.807zM211.819 34.034h-6.833v6.807h6.833v-6.807z" fill="#fff"/>
        <path d="M211.819 40.84h-6.833v6.807h6.833v-6.806zM211.819 47.648h-6.833v6.806h6.833v-6.806zM211.819 54.454h-6.833v6.807h6.833v-6.807z" fill="#fff"/>
        <path d="M211.819 61.261h-6.833v6.807h6.833V61.26zM211.819 68.068h-6.833v6.807h6.833v-6.807zM211.819 81.681h-6.833v6.807h6.833v-6.807zM211.819 95.295h-6.833v6.807h6.833v-6.807zM211.819 102.102h-6.833v6.807h6.833v-6.807zM211.819 115.715h-6.833v6.807h6.833v-6.807zM211.819 149.749h-6.833v6.807h6.833v-6.807zM211.819 163.363h-6.833v6.807h6.833v-6.807zM211.819 176.976h-6.833v6.807h6.833v-6.807zM211.819 183.783h-6.833v6.807h6.833v-6.807zM211.819 190.59h-6.833v6.807h6.833v-6.807zM211.819 197.397h-6.833v6.807h6.833v-6.807zM211.819 204.204h-6.833v6.806h6.833v-6.806z" fill="#fff"/>
        <path d="M211.819 211.01h-6.833v6.807h6.833v-6.807zM211.819 217.817h-6.833v6.807h6.833v-6.807zM211.819 224.624h-6.833v6.807h6.833v-6.807zM211.819 245.044h-6.833v6.807h6.833v-6.807zM211.819 272.271h-6.833v6.807h6.833v-6.807zM218.652 0h-6.833v6.807h6.833V0zM218.652 6.807h-6.833v6.807h6.833V6.807zM218.652 20.42h-6.833v6.807h6.833V20.42zM218.652 54.454h-6.833v6.807h6.833v-6.807z" fill="#fff"/>
        <path d="M218.652 61.261h-6.833v6.807h6.833V61.26zM218.652 74.875h-6.833v6.806h6.833v-6.806zM218.652 81.681h-6.833v6.807h6.833v-6.807zM218.652 88.488h-6.833v6.807h6.833v-6.807zM218.652 95.295h-6.833v6.807h6.833v-6.807zM218.652 122.522h-6.833v6.807h6.833v-6.807zM218.652 136.136h-6.833v6.807h6.833v-6.807zM218.652 156.556h-6.833v6.807h6.833v-6.807zM218.652 170.17h-6.833v6.806h6.833v-6.806zM218.652 176.976h-6.833v6.807h6.833v-6.807zM218.652 190.59h-6.833v6.807h6.833v-6.807zM218.652 211.01h-6.833v6.807h6.833v-6.807zM218.652 217.817h-6.833v6.807h6.833v-6.807zM218.652 231.431h-6.833v6.807h6.833v-6.807zM218.652 238.238h-6.833v6.806h6.833v-6.806zM218.652 258.658h-6.833v6.807h6.833v-6.807zM225.485 0h-6.833v6.807h6.833V0zM225.485 6.807h-6.833v6.807h6.833V6.807zM225.485 27.227h-6.833v6.807h6.833v-6.807zM225.485 34.034h-6.833v6.807h6.833v-6.807z" fill="#fff"/>
        <path d="M225.485 40.84h-6.833v6.807h6.833v-6.806zM225.485 47.648h-6.833v6.806h6.833v-6.806zM225.485 54.454h-6.833v6.807h6.833v-6.807zM225.485 88.488h-6.833v6.807h6.833v-6.807zM225.485 95.295h-6.833v6.807h6.833v-6.807zM225.485 108.909h-6.833v6.806h6.833v-6.806zM225.485 142.943h-6.833v6.806h6.833v-6.806z" fill="#fff"/>
        <path d="M225.485 149.749h-6.833v6.807h6.833v-6.807zM225.485 156.556h-6.833v6.807h6.833v-6.807zM225.485 183.783h-6.833v6.807h6.833v-6.807zM225.485 197.397h-6.833v6.807h6.833v-6.807zM225.485 217.817h-6.833v6.807h6.833v-6.807zM225.485 224.624h-6.833v6.807h6.833v-6.807zM225.485 231.431h-6.833v6.807h6.833v-6.807zM225.485 238.238h-6.833v6.806h6.833v-6.806zM225.485 245.044h-6.833v6.807h6.833v-6.807zM225.485 251.851h-6.833v6.807h6.833v-6.807zM225.485 258.658h-6.833v6.807h6.833v-6.807z" fill="#fff"/>
        <path d="M225.485 265.465h-6.833v6.806h6.833v-6.806zM225.485 272.271h-6.833v6.807h6.833v-6.807zM232.317 54.454h-6.832v6.807h6.832v-6.807zM232.317 68.068h-6.832v6.807h6.832v-6.807zM232.317 74.875h-6.832v6.806h6.832v-6.806zM232.317 81.681h-6.832v6.807h6.832v-6.807zM232.317 88.488h-6.832v6.807h6.832v-6.807zM232.317 95.295h-6.832v6.807h6.832v-6.807zM232.317 102.102h-6.832v6.807h6.832v-6.807zM232.317 115.715h-6.832v6.807h6.832v-6.807zM232.317 149.749h-6.832v6.807h6.832v-6.807zM232.317 156.556h-6.832v6.807h6.832v-6.807zM232.317 163.363h-6.832v6.807h6.832v-6.807zM232.317 183.783h-6.832v6.807h6.832v-6.807zM232.317 190.59h-6.832v6.807h6.832v-6.807zM232.317 197.397h-6.832v6.807h6.832v-6.807zM232.317 204.204h-6.832v6.806h6.832v-6.806z" fill="#fff"/>
        <path d="M232.317 211.01h-6.832v6.807h6.832v-6.807zM232.317 217.817h-6.832v6.807h6.832v-6.807zM232.317 245.044h-6.832v6.807h6.832v-6.807zM239.15 95.295h-6.833v6.807h6.833v-6.807zM239.15 136.136h-6.833v6.807h6.833v-6.807zM239.15 156.556h-6.833v6.807h6.833v-6.807zM239.15 176.976h-6.833v6.807h6.833v-6.807zM239.15 183.783h-6.833v6.807h6.833v-6.807zM239.15 197.397h-6.833v6.807h6.833v-6.807zM239.15 211.01h-6.833v6.807h6.833v-6.807zM239.15 217.817h-6.833v6.807h6.833v-6.807zM239.15 231.431h-6.833v6.807h6.833v-6.807zM239.15 245.044h-6.833v6.807h6.833v-6.807zM239.15 251.851h-6.833v6.807h6.833v-6.807zM239.15 258.658h-6.833v6.807h6.833v-6.807z" fill="#fff"/>
        <path d="M239.15 265.465h-6.833v6.806h6.833v-6.806zM245.983 54.454h-6.833v6.807h6.833v-6.807zM245.983 68.068h-6.833v6.807h6.833v-6.807zM245.983 74.875h-6.833v6.806h6.833v-6.806zM245.983 95.295h-6.833v6.807h6.833v-6.807zM245.983 102.102h-6.833v6.807h6.833v-6.807zM245.983 108.909h-6.833v6.806h6.833v-6.806zM245.983 115.715h-6.833v6.807h6.833v-6.807zM245.983 142.943h-6.833v6.806h6.833v-6.806zM245.983 156.556h-6.833v6.807h6.833v-6.807zM245.983 163.363h-6.833v6.807h6.833v-6.807zM245.983 176.976h-6.833v6.807h6.833v-6.807zM245.983 197.397h-6.833v6.807h6.833v-6.807zM245.983 211.01h-6.833v6.807h6.833v-6.807zM245.983 217.817h-6.833v6.807h6.833v-6.807zM245.983 245.044h-6.833v6.807h6.833v-6.807zM245.983 265.465h-6.833v6.806h6.833v-6.806zM245.983 272.271h-6.833v6.807h6.833v-6.807zM252.816 54.454h-6.833v6.807h6.833v-6.807z" fill="#fff"/>
        <path d="M252.816 61.261h-6.833v6.807h6.833V61.26zM252.816 81.681h-6.833v6.807h6.833v-6.807zM252.816 88.488h-6.833v6.807h6.833v-6.807zM252.816 122.522h-6.833v6.807h6.833v-6.807zM252.816 129.329h-6.833v6.807h6.833v-6.807zM252.816 136.136h-6.833v6.807h6.833v-6.807zM252.816 142.943h-6.833v6.806h6.833v-6.806zM252.816 156.556h-6.833v6.807h6.833v-6.807zM252.816 163.363h-6.833v6.807h6.833v-6.807zM252.816 170.17h-6.833v6.806h6.833v-6.806zM252.816 176.976h-6.833v6.807h6.833v-6.807zM252.816 183.783h-6.833v6.807h6.833v-6.807zM252.816 190.59h-6.833v6.807h6.833v-6.807zM252.816 204.204h-6.833v6.806h6.833v-6.806z" fill="#fff"/>
        <path d="M252.816 211.01h-6.833v6.807h6.833v-6.807zM252.816 217.817h-6.833v6.807h6.833v-6.807zM252.816 224.624h-6.833v6.807h6.833v-6.807zM252.816 231.431h-6.833v6.807h6.833v-6.807zM252.816 238.238h-6.833v6.806h6.833v-6.806zM252.816 245.044h-6.833v6.807h6.833v-6.807zM252.816 251.851h-6.833v6.807h6.833v-6.807zM252.816 272.271h-6.833v6.807h6.833v-6.807zM259.649 54.454h-6.833v6.807h6.833v-6.807z" fill="#fff"/>
        <path d="M259.649 61.261h-6.833v6.807h6.833V61.26zM259.649 102.102h-6.833v6.807h6.833v-6.807zM259.649 129.329h-6.833v6.807h6.833v-6.807zM259.649 142.943h-6.833v6.806h6.833v-6.806zM259.649 156.556h-6.833v6.807h6.833v-6.807zM259.649 163.363h-6.833v6.807h6.833v-6.807zM259.649 170.17h-6.833v6.806h6.833v-6.806zM259.649 183.783h-6.833v6.807h6.833v-6.807zM259.649 190.59h-6.833v6.807h6.833v-6.807zM259.649 217.817h-6.833v6.807h6.833v-6.807zM259.649 238.238h-6.833v6.806h6.833v-6.806zM266.482 61.261h-6.833v6.807h6.833V61.26zM266.482 68.068h-6.833v6.807h6.833v-6.807zM266.482 74.875h-6.833v6.806h6.833v-6.806zM266.482 81.681h-6.833v6.807h6.833v-6.807zM266.482 95.295h-6.833v6.807h6.833v-6.807zM266.482 108.909h-6.833v6.806h6.833v-6.806zM266.482 122.522h-6.833v6.807h6.833v-6.807zM266.482 142.943h-6.833v6.806h6.833v-6.806z" fill="#fff"/>
        <path d="M266.482 149.749h-6.833v6.807h6.833v-6.807zM266.482 170.17h-6.833v6.806h6.833v-6.806zM266.482 183.783h-6.833v6.807h6.833v-6.807zM266.482 204.204h-6.833v6.806h6.833v-6.806z" fill="#fff"/>
        <path d="M266.482 211.01h-6.833v6.807h6.833v-6.807zM266.482 224.624h-6.833v6.807h6.833v-6.807zM266.482 238.238h-6.833v6.806h6.833v-6.806zM266.482 245.044h-6.833v6.807h6.833v-6.807zM266.482 258.658h-6.833v6.807h6.833v-6.807zM266.482 272.271h-6.833v6.807h6.833v-6.807zM273.315 54.454h-6.833v6.807h6.833v-6.807zM273.315 68.068h-6.833v6.807h6.833v-6.807zM273.315 81.681h-6.833v6.807h6.833v-6.807zM273.315 88.488h-6.833v6.807h6.833v-6.807zM273.315 102.102h-6.833v6.807h6.833v-6.807zM273.315 115.715h-6.833v6.807h6.833v-6.807zM273.315 156.556h-6.833v6.807h6.833v-6.807zM273.315 163.363h-6.833v6.807h6.833v-6.807zM273.315 176.976h-6.833v6.807h6.833v-6.807zM273.315 183.783h-6.833v6.807h6.833v-6.807z" fill="#fff"/>
        <path d="M273.315 204.204h-6.833v6.806h6.833v-6.806zM273.315 231.431h-6.833v6.807h6.833v-6.807zM273.315 245.044h-6.833v6.807h6.833v-6.807zM273.315 251.851h-6.833v6.807h6.833v-6.807zM273.315 258.658h-6.833v6.807h6.833v-6.807zM273.315 272.271h-6.833v6.807h6.833v-6.807zM280.147 61.261h-6.832v6.807h6.832V61.26zM280.147 68.068h-6.832v6.807h6.832v-6.807zM280.147 81.681h-6.832v6.807h6.832v-6.807zM280.147 95.295h-6.832v6.807h6.832v-6.807zM280.147 108.909h-6.832v6.806h6.832v-6.806zM280.147 115.715h-6.832v6.807h6.832v-6.807zM280.147 129.329h-6.832v6.807h6.832v-6.807zM280.147 136.136h-6.832v6.807h6.832v-6.807zM280.147 149.749h-6.832v6.807h6.832v-6.807zM280.147 156.556h-6.832v6.807h6.832v-6.807zM280.147 163.363h-6.832v6.807h6.832v-6.807zM280.147 170.17h-6.832v6.806h6.832v-6.806zM280.147 190.59h-6.832v6.807h6.832v-6.807zM280.147 217.817h-6.832v6.807h6.832v-6.807zM280.147 231.431h-6.832v6.807h6.832v-6.807zM280.147 245.044h-6.832v6.807h6.832v-6.807z" fill="#fff"/>
        <path fill-rule="evenodd" clip-rule="evenodd" d="M0 0v47.648h47.83V0H0zm6.833 6.807h34.164V40.84H6.833V6.807z" fill="#fff"/>
        <path d="M20.498 13.614h-6.832v6.806h6.832v-6.806zM20.498 20.42h-6.832v6.807h6.832V20.42z" fill="#fff"/>
        <path d="M20.498 27.227h-6.832v6.807h6.832v-6.807zM27.331 13.614H20.5v6.806h6.832v-6.806zM27.331 20.42H20.5v6.807h6.832V20.42z" fill="#fff"/>
        <path d="M27.331 27.227H20.5v6.807h6.832v-6.807zM34.164 13.614h-6.833v6.806h6.833v-6.806z" fill="#fff"/>
        <path d="M34.164 20.42h-6.833v6.807h6.833V20.42z" fill="#fff"/>
        <path d="M34.164 27.227h-6.833v6.807h6.833v-6.807z" fill="#fff"/>
        <path fill-rule="evenodd" clip-rule="evenodd" d="M280.147 0h-47.83v47.648h47.83V0zm-6.832 6.807V40.84H239.15V6.807h34.165z" fill="#fff"/>
        <path d="M252.816 13.614h-6.833v6.806h6.833v-6.806zM252.816 20.42h-6.833v6.807h6.833V20.42z" fill="#fff"/>
        <path d="M252.816 27.227h-6.833v6.807h6.833v-6.807zM259.649 13.614h-6.833v6.806h6.833v-6.806zM259.649 20.42h-6.833v6.807h6.833V20.42z" fill="#fff"/>
        <path d="M259.649 27.227h-6.833v6.807h6.833v-6.807zM266.482 13.614h-6.833v6.806h6.833v-6.806zM266.482 20.42h-6.833v6.807h6.833V20.42z" fill="#fff"/>
        <path d="M266.482 27.227h-6.833v6.807h6.833v-6.807z" fill="#fff"/>
        <path fill-rule="evenodd" clip-rule="evenodd" d="M0 279.078h47.83v-47.647H0v47.647zm6.833-6.807v-34.033h34.164v34.033H6.833z" fill="#fff"/>
        <path d="M20.498 245.044h-6.832v6.807h6.832v-6.807zM20.498 251.851h-6.832v6.807h6.832v-6.807zM20.498 258.658h-6.832v6.807h6.832v-6.807zM27.331 245.044H20.5v6.807h6.832v-6.807zM27.331 251.851H20.5v6.807h6.832v-6.807zM27.331 258.658H20.5v6.807h6.832v-6.807z" fill="#fff"/>
        <path d="M34.164 245.044h-6.833v6.807h6.833v-6.807zM34.164 251.851h-6.833v6.807h6.833v-6.807zM34.164 258.658h-6.833v6.807h6.833v-6.807z" fill="#fff"/>
    </mask>
    <g mask="url(#vqqcul9p8a)">
        <path d="M280.544-.49H-.529v279.999h281.073v-280z" fill="#000"/>
    </g>
    <path fill="#fff" d="M90 89h100v100H90z"/>
    <path d="M159.572 156.533c-13.244-10.19-11.773-19.034-11.939-22.668h8.072c.944-1.772 1.424-3.41 1.424-5.449l-9.155-6.086a12.824 12.824 0 0 0 5.258-10.367c0-5.373-3.279-9.97-7.93-11.871-1.466-.598-11.84 33.773-11.84 33.773-.038.79-.042 1.819-.042 3.059 0 3.415 8.319 2.897 7.872 5.914-.664 4.511-.802 7.934-4.65 18.77-2.596 7.312-19.917 0-21.156 3.592-.859 2.499-1.319 5.296-1.319 8.312 0 .321.692 5.162 26.38 5.162s26.381-4.836 26.381-5.162c0-7.35-2.719-13.407-7.356-16.974v-.005z" fill="#5D9948"/>
    <path d="M140.082 161.106c1.429-6.556 2.696-13.547 3.465-17.732.963-5.224-6.896-6.157-10.123-6.636-.147 4.462-1.381 11.702-11.902 19.795-2.837 2.183-4.949 5.3-6.169 9.074 2.838 1.398 6.63 2.231 12.472 2.231 3.749 0 10.691.455 12.257-6.732zM145.597 133.865c1.243-3.261 1.082-5.449 1.082-5.449l-5.187-6.086c5.514-2.375 8.831-6.838 8.831-12.038 0-4.152-1.959-7.839-4.997-10.176a12.555 12.555 0 0 0-4.788-.948c-7.004 0-12.685 5.732-12.685 12.8a12.81 12.81 0 0 0 5.258 10.366l-9.154 6.086c0 2.045.479 3.683 1.424 5.449h20.211l.005-.004z" fill="#81B64C"/>
    <path d="M139.427 102.295c7.313 1.144-3.369 9.706-6.738 9.308-3.204-.383-.119-10.381 6.738-9.308z" fill="#B2E068"/>
</svg>
