<svg width="286" height="283" viewBox="0 0 286 283" fill="none" xmlns="http://www.w3.org/2000/svg">
    <path d="M285.171.846H.829V283h284.342V.846z" fill="#fff"/>
    <mask id="3fwipfh9oa" style="mask-type:luminance" maskUnits="userSpaceOnUse" x="3" y="3" width="281" height="279">
        <path d="M10.582 70.717H3v7.524h7.582v-7.524zM10.582 108.337H3v7.525h7.582v-7.525zM10.582 123.386H3v7.524h7.582v-7.524zM10.582 130.91H3v7.524h7.582v-7.524zM10.582 138.434H3v7.524h7.582v-7.524zM10.582 153.482H3v7.524h7.582v-7.524zM10.582 161.006H3v7.524h7.582v-7.524zM10.582 168.53H3v7.524h7.582v-7.524zM10.582 183.578H3v7.525h7.582v-7.525zM10.582 191.103H3v7.524h7.582v-7.524zM10.582 198.627H3v7.524h7.582v-7.524zM10.582 206.151H3v7.524h7.582v-7.524zM10.582 213.675H3v7.524h7.582v-7.524zM18.165 70.717h-7.582v7.524h7.582v-7.524zM18.165 93.29h-7.582v7.523h7.582v-7.524zM18.165 130.91h-7.582v7.524h7.582v-7.524zM18.165 145.958h-7.582v7.524h7.582v-7.524zM18.165 153.482h-7.582v7.524h7.582v-7.524zM18.165 191.103h-7.582v7.524h7.582v-7.524zM18.165 213.675h-7.582v7.524h7.582v-7.524zM25.747 63.193h-7.582v7.524h7.582v-7.524zM25.747 78.241h-7.582v7.524h7.582v-7.524zM25.747 100.813h-7.582v7.524h7.582v-7.524zM25.747 115.862h-7.582v7.524h7.582v-7.524zM25.747 123.386h-7.582v7.524h7.582v-7.524zM25.747 130.91h-7.582v7.524h7.582v-7.524zM25.747 138.434h-7.582v7.524h7.582v-7.524zM25.747 161.006h-7.582v7.524h7.582v-7.524zM25.747 176.054h-7.582v7.524h7.582v-7.524zM25.747 198.627h-7.582v7.524h7.582v-7.524zM33.33 70.717h-7.583v7.524h7.583v-7.524zM33.33 93.29h-7.583v7.523h7.583v-7.524zM33.33 108.337h-7.583v7.525h7.583v-7.525z" fill="#fff"/>
        <path d="M33.33 115.862h-7.583v7.524h7.583v-7.524zM33.33 123.386h-7.583v7.524h7.583v-7.524zM33.33 130.91h-7.583v7.524h7.583v-7.524zM33.33 145.958h-7.583v7.524h7.583v-7.524zM33.33 168.53h-7.583v7.524h7.583v-7.524zM33.33 176.054h-7.583v7.524h7.583v-7.524zM33.33 183.578h-7.583v7.525h7.583v-7.525zM33.33 191.103h-7.583v7.524h7.583v-7.524zM33.33 198.627h-7.583v7.524h7.583v-7.524zM33.33 213.675h-7.583v7.524h7.583v-7.524zM40.912 63.193H33.33v7.524h7.582v-7.524zM40.912 70.717H33.33v7.524h7.582v-7.524zM40.912 78.241H33.33v7.524h7.582v-7.524zM40.912 85.765H33.33v7.524h7.582v-7.524zM40.912 100.813H33.33v7.524h7.582v-7.524zM40.912 108.337H33.33v7.525h7.582v-7.525z" fill="#fff"/>
        <path d="M40.912 115.862H33.33v7.524h7.582v-7.524zM40.912 123.386H33.33v7.524h7.582v-7.524zM40.912 138.434H33.33v7.524h7.582v-7.524zM40.912 161.006H33.33v7.524h7.582v-7.524zM40.912 176.054H33.33v7.524h7.582v-7.524zM40.912 191.103H33.33v7.524h7.582v-7.524zM40.912 206.151H33.33v7.524h7.582v-7.524zM48.495 63.193h-7.583v7.524h7.583v-7.524zM48.495 70.717h-7.583v7.524h7.583v-7.524zM48.495 93.29h-7.583v7.523h7.583v-7.524zM48.495 123.386h-7.583v7.524h7.583v-7.524zM48.495 130.91h-7.583v7.524h7.583v-7.524zM48.495 138.434h-7.583v7.524h7.583v-7.524zM48.495 145.958h-7.583v7.524h7.583v-7.524zM48.495 153.482h-7.583v7.524h7.583v-7.524zM48.495 161.006h-7.583v7.524h7.583v-7.524zM48.495 168.53h-7.583v7.524h7.583v-7.524zM48.495 183.578h-7.583v7.525h7.583v-7.525zM48.495 191.103h-7.583v7.524h7.583v-7.524zM48.495 213.675h-7.583v7.524h7.583v-7.524zM56.077 63.193h-7.582v7.524h7.582v-7.524zM56.077 78.241h-7.582v7.524h7.582v-7.524zM56.077 93.29h-7.582v7.523h7.582v-7.524zM56.077 108.337h-7.582v7.525h7.582v-7.525zM56.077 123.386h-7.582v7.524h7.582v-7.524zM56.077 138.434h-7.582v7.524h7.582v-7.524zM56.077 153.482h-7.582v7.524h7.582v-7.524zM56.077 168.53h-7.582v7.524h7.582v-7.524zM56.077 183.578h-7.582v7.525h7.582v-7.525zM56.077 198.627h-7.582v7.524h7.582v-7.524zM56.077 213.675h-7.582v7.524h7.582v-7.524zM63.66 78.241h-7.583v7.524h7.583v-7.524zM63.66 115.862h-7.583v7.524h7.583v-7.524zM63.66 123.386h-7.583v7.524h7.583v-7.524zM63.66 130.91h-7.583v7.524h7.583v-7.524zM63.66 138.434h-7.583v7.524h7.583v-7.524zM63.66 145.958h-7.583v7.524h7.583v-7.524zM63.66 161.006h-7.583v7.524h7.583v-7.524zM63.66 176.054h-7.583v7.524h7.583v-7.524zM63.66 183.578h-7.583v7.525h7.583v-7.525zM63.66 198.627h-7.583v7.524h7.583v-7.524zM71.242 10.524h-7.583v7.524h7.583v-7.524zM71.242 33.096h-7.583v7.525h7.583v-7.525zM71.242 48.145h-7.583v7.524h7.583v-7.524zM71.242 63.193h-7.583v7.524h7.583v-7.524zM71.242 70.717h-7.583v7.524h7.583v-7.524z" fill="#fff"/>
        <path d="M71.242 78.241h-7.583v7.524h7.583v-7.524zM71.242 93.29h-7.583v7.523h7.583v-7.524zM71.242 108.337h-7.583v7.525h7.583v-7.525zM71.242 123.386h-7.583v7.524h7.583v-7.524zM71.242 138.434h-7.583v7.524h7.583v-7.524zM71.242 145.958h-7.583v7.524h7.583v-7.524zM71.242 153.482h-7.583v7.524h7.583v-7.524zM71.242 161.006h-7.583v7.524h7.583v-7.524zM71.242 168.53h-7.583v7.524h7.583v-7.524zM71.242 176.054h-7.583v7.524h7.583v-7.524zM71.242 183.578h-7.583v7.525h7.583v-7.525zM71.242 206.151h-7.583v7.524h7.583v-7.524zM71.242 221.199h-7.583v7.524h7.583v-7.524zM71.242 236.247h-7.583v7.524h7.583v-7.524z" fill="#fff"/>
        <path d="M71.242 243.771h-7.583v7.524h7.583v-7.524zM71.242 258.819h-7.583v7.525h7.583v-7.525zM78.824 3h-7.582v7.524h7.582V3z" fill="#fff"/>
        <path d="M78.824 10.524h-7.582v7.524h7.582v-7.524zM78.824 18.048h-7.582v7.524h7.582v-7.524z" fill="#fff"/>
        <path d="M78.824 25.572h-7.582v7.524h7.582v-7.524zM78.824 40.62h-7.582v7.525h7.582V40.62zM78.824 63.193h-7.582v7.524h7.582v-7.524zM78.824 78.241h-7.582v7.524h7.582v-7.524zM78.824 100.813h-7.582v7.524h7.582v-7.524zM78.824 108.337h-7.582v7.525h7.582v-7.525zM78.824 123.386h-7.582v7.524h7.582v-7.524zM78.824 130.91h-7.582v7.524h7.582v-7.524zM78.824 153.482h-7.582v7.524h7.582v-7.524zM78.824 168.53h-7.582v7.524h7.582v-7.524zM78.824 176.054h-7.582v7.524h7.582v-7.524zM78.824 206.151h-7.582v7.524h7.582v-7.524zM78.824 213.675h-7.582v7.524h7.582v-7.524zM78.824 236.247h-7.582v7.524h7.582v-7.524z" fill="#fff"/>
        <path d="M78.824 243.771h-7.582v7.524h7.582v-7.524z" fill="#fff"/>
        <path d="M78.824 251.295h-7.582v7.524h7.582v-7.524zM78.824 258.819h-7.582v7.525h7.582v-7.525zM86.407 3h-7.583v7.524h7.583V3z" fill="#fff"/>
        <path d="M86.407 10.524h-7.583v7.524h7.583v-7.524zM86.407 18.048h-7.583v7.524h7.583v-7.524z" fill="#fff"/>
        <path d="M86.407 25.572h-7.583v7.524h7.583v-7.524zM86.407 33.096h-7.583v7.525h7.583v-7.525zM86.407 48.145h-7.583v7.524h7.583v-7.524zM86.407 70.717h-7.583v7.524h7.583v-7.524zM86.407 78.241h-7.583v7.524h7.583v-7.524zM86.407 93.29h-7.583v7.523h7.583v-7.524zM86.407 115.862h-7.583v7.524h7.583v-7.524zM86.407 138.434h-7.583v7.524h7.583v-7.524zM86.407 145.958h-7.583v7.524h7.583v-7.524zM86.407 168.53h-7.583v7.524h7.583v-7.524zM86.407 176.054h-7.583v7.524h7.583v-7.524zM86.407 191.103h-7.583v7.524h7.583v-7.524zM86.407 198.627h-7.583v7.524h7.583v-7.524zM86.407 206.151h-7.583v7.524h7.583v-7.524zM86.407 213.675h-7.583v7.524h7.583v-7.524zM86.407 221.199h-7.583v7.524h7.583v-7.524zM86.407 236.247h-7.583v7.524h7.583v-7.524zM86.407 258.819h-7.583v7.525h7.583v-7.525zM93.99 3h-7.583v7.524h7.582V3z" fill="#fff"/>
        <path d="M93.99 10.524h-7.583v7.524h7.582v-7.524zM93.99 18.048h-7.583v7.524h7.582v-7.524zM93.99 40.62h-7.583v7.525h7.582V40.62zM93.99 63.193h-7.583v7.524h7.582v-7.524zM93.99 70.717h-7.583v7.524h7.582v-7.524zM93.99 115.862h-7.583v7.524h7.582v-7.524zM93.99 123.386h-7.583v7.524h7.582v-7.524zM93.99 153.482h-7.583v7.524h7.582v-7.524zM93.99 161.006h-7.583v7.524h7.582v-7.524zM93.99 176.054h-7.583v7.524h7.582v-7.524zM93.99 183.578h-7.583v7.525h7.582v-7.525zM93.99 198.627h-7.583v7.524h7.582v-7.524zM93.99 206.151h-7.583v7.524h7.582v-7.524zM93.99 213.675h-7.583v7.524h7.582v-7.524zM93.99 221.199h-7.583v7.524h7.582v-7.524zM93.99 236.247h-7.583v7.524h7.582v-7.524z" fill="#fff"/>
        <path d="M93.99 243.771h-7.583v7.524h7.582v-7.524zM93.99 258.819h-7.583v7.525h7.582v-7.525zM93.99 273.868h-7.583v7.524h7.582v-7.524zM101.572 3h-7.583v7.524h7.583V3zM101.572 25.572h-7.583v7.524h7.583v-7.524zM101.572 48.145h-7.583v7.524h7.583v-7.524zM101.572 63.193h-7.583v7.524h7.583v-7.524zM101.572 78.241h-7.583v7.524h7.583v-7.524zM101.572 85.765h-7.583v7.524h7.583v-7.524zM101.572 93.29h-7.583v7.523h7.583v-7.524zM101.572 100.813h-7.583v7.524h7.583v-7.524zM101.572 108.337h-7.583v7.525h7.583v-7.525zM101.572 123.386h-7.583v7.524h7.583v-7.524zM101.572 130.91h-7.583v7.524h7.583v-7.524zM101.572 138.434h-7.583v7.524h7.583v-7.524zM101.572 153.482h-7.583v7.524h7.583v-7.524zM101.572 161.006h-7.583v7.524h7.583v-7.524zM101.572 206.151h-7.583v7.524h7.583v-7.524zM101.572 221.199h-7.583v7.524h7.583v-7.524zM101.572 228.723h-7.583v7.524h7.583v-7.524z" fill="#fff"/>
        <path d="M101.572 258.819h-7.583v7.525h7.583v-7.525zM101.572 266.344h-7.583v7.524h7.583v-7.524zM109.154 3h-7.582v7.524h7.582V3zM109.154 18.048h-7.582v7.524h7.582v-7.524z" fill="#fff"/>
        <path d="M109.154 25.572h-7.582v7.524h7.582v-7.524zM109.154 33.096h-7.582v7.525h7.582v-7.525zM109.154 55.669h-7.582v7.524h7.582v-7.524zM109.154 63.193h-7.582v7.524h7.582v-7.524zM109.154 70.717h-7.582v7.524h7.582v-7.524zM109.154 108.337h-7.582v7.525h7.582v-7.525z" fill="#fff"/>
        <path d="M109.154 115.862h-7.582v7.524h7.582v-7.524zM109.154 123.386h-7.582v7.524h7.582v-7.524zM109.154 130.91h-7.582v7.524h7.582v-7.524zM109.154 145.958h-7.582v7.524h7.582v-7.524zM109.154 161.006h-7.582v7.524h7.582v-7.524zM109.154 168.53h-7.582v7.524h7.582v-7.524zM109.154 176.054h-7.582v7.524h7.582v-7.524zM109.154 206.151h-7.582v7.524h7.582v-7.524zM109.154 213.675h-7.582v7.524h7.582v-7.524zM109.154 221.199h-7.582v7.524h7.582v-7.524zM109.154 243.771h-7.582v7.524h7.582v-7.524zM109.154 258.819h-7.582v7.525h7.582v-7.525zM116.736 10.524h-7.582v7.524h7.582v-7.524zM116.736 40.62h-7.582v7.525h7.582V40.62zM116.736 48.145h-7.582v7.524h7.582v-7.524z" fill="#fff"/>
        <path d="M116.736 55.669h-7.582v7.524h7.582v-7.524zM116.736 63.193h-7.582v7.524h7.582v-7.524zM116.736 85.765h-7.582v7.524h7.582v-7.524zM116.736 108.337h-7.582v7.525h7.582v-7.525zM116.736 123.386h-7.582v7.524h7.582v-7.524zM116.736 138.434h-7.582v7.524h7.582v-7.524zM116.736 145.958h-7.582v7.524h7.582v-7.524zM116.736 153.482h-7.582v7.524h7.582v-7.524zM116.736 176.054h-7.582v7.524h7.582v-7.524zM116.736 183.578h-7.582v7.525h7.582v-7.525zM116.736 198.627h-7.582v7.524h7.582v-7.524zM116.736 206.151h-7.582v7.524h7.582v-7.524zM116.736 213.675h-7.582v7.524h7.582v-7.524zM116.736 251.295h-7.582v7.524h7.582v-7.524zM116.736 258.819h-7.582v7.525h7.582v-7.525zM124.319 10.524h-7.582v7.524h7.582v-7.524zM124.319 18.048h-7.582v7.524h7.582v-7.524zM124.319 33.096h-7.582v7.525h7.582v-7.525zM124.319 78.241h-7.582v7.524h7.582v-7.524zM124.319 100.813h-7.582v7.524h7.582v-7.524zM124.319 115.862h-7.582v7.524h7.582v-7.524zM124.319 123.386h-7.582v7.524h7.582v-7.524zM124.319 130.91h-7.582v7.524h7.582v-7.524zM124.319 138.434h-7.582v7.524h7.582v-7.524zM124.319 145.958h-7.582v7.524h7.582v-7.524zM124.319 168.53h-7.582v7.524h7.582v-7.524zM124.319 176.054h-7.582v7.524h7.582v-7.524zM124.319 198.627h-7.582v7.524h7.582v-7.524zM124.319 206.151h-7.582v7.524h7.582v-7.524zM124.319 258.819h-7.582v7.525h7.582v-7.525zM124.319 273.868h-7.582v7.524h7.582v-7.524zM131.901 10.524h-7.582v7.524h7.582v-7.524zM131.901 18.048h-7.582v7.524h7.582v-7.524zM131.901 33.096h-7.582v7.525h7.582v-7.525z" fill="#fff"/>
        <path d="M131.901 40.62h-7.582v7.525h7.582V40.62zM131.901 48.145h-7.582v7.524h7.582v-7.524zM131.901 63.193h-7.582v7.524h7.582v-7.524zM131.901 85.765h-7.582v7.524h7.582v-7.524zM131.901 93.29h-7.582v7.523h7.582v-7.524zM131.901 138.434h-7.582v7.524h7.582v-7.524zM131.901 153.482h-7.582v7.524h7.582v-7.524zM131.901 168.53h-7.582v7.524h7.582v-7.524zM131.901 183.578h-7.582v7.525h7.582v-7.525zM131.901 198.627h-7.582v7.524h7.582v-7.524zM131.901 228.723h-7.582v7.524h7.582v-7.524zM131.901 236.247h-7.582v7.524h7.582v-7.524zM131.901 251.295h-7.582v7.524h7.582v-7.524zM131.901 258.819h-7.582v7.525h7.582v-7.525zM131.901 266.344h-7.582v7.524h7.582v-7.524zM139.484 3h-7.583v7.524h7.583V3z" fill="#fff"/>
        <path d="M139.484 10.524h-7.583v7.524h7.583v-7.524zM139.484 25.572h-7.583v7.524h7.583v-7.524zM139.484 33.096h-7.583v7.525h7.583v-7.525z" fill="#fff"/>
        <path d="M139.484 40.62h-7.583v7.525h7.583V40.62zM139.484 85.765h-7.583v7.524h7.583v-7.524zM139.484 93.29h-7.583v7.523h7.583v-7.524zM139.484 108.337h-7.583v7.525h7.583v-7.525zM139.484 123.386h-7.583v7.524h7.583v-7.524zM139.484 130.91h-7.583v7.524h7.583v-7.524zM139.484 145.958h-7.583v7.524h7.583v-7.524zM139.484 161.006h-7.583v7.524h7.583v-7.524zM139.484 191.103h-7.583v7.524h7.583v-7.524zM139.484 198.627h-7.583v7.524h7.583v-7.524zM139.484 206.151h-7.583v7.524h7.583v-7.524zM139.484 213.675h-7.583v7.524h7.583v-7.524zM139.484 243.771h-7.583v7.524h7.583v-7.524z" fill="#fff"/>
        <path d="M139.484 251.295h-7.583v7.524h7.583v-7.524zM139.484 258.819h-7.583v7.525h7.583v-7.525zM147.066 3h-7.582v7.524h7.582V3z" fill="#fff"/>
        <path d="M147.066 10.524h-7.582v7.524h7.582v-7.524zM147.066 25.572h-7.582v7.524h7.582v-7.524zM147.066 33.096h-7.582v7.525h7.582v-7.525zM147.066 48.145h-7.582v7.524h7.582v-7.524z" fill="#fff"/>
        <path d="M147.066 55.669h-7.582v7.524h7.582v-7.524zM147.066 70.717h-7.582v7.524h7.582v-7.524zM147.066 85.765h-7.582v7.524h7.582v-7.524zM147.066 93.29h-7.582v7.523h7.582v-7.524zM147.066 100.813h-7.582v7.524h7.582v-7.524zM147.066 123.386h-7.582v7.524h7.582v-7.524zM147.066 130.91h-7.582v7.524h7.582v-7.524zM147.066 138.434h-7.582v7.524h7.582v-7.524zM147.066 153.482h-7.582v7.524h7.582v-7.524zM147.066 198.627h-7.582v7.524h7.582v-7.524zM147.066 206.151h-7.582v7.524h7.582v-7.524zM147.066 221.199h-7.582v7.524h7.582v-7.524zM154.649 3h-7.583v7.524h7.583V3zM154.649 63.193h-7.583v7.524h7.583v-7.524zM154.649 70.717h-7.583v7.524h7.583v-7.524zM154.649 78.241h-7.583v7.524h7.583v-7.524zM154.649 85.765h-7.583v7.524h7.583v-7.524zM154.649 93.29h-7.583v7.523h7.583v-7.524zM154.649 100.813h-7.583v7.524h7.583v-7.524zM154.649 115.862h-7.583v7.524h7.583v-7.524zM154.649 161.006h-7.583v7.524h7.583v-7.524zM154.649 168.53h-7.583v7.524h7.583v-7.524zM154.649 183.578h-7.583v7.525h7.583v-7.525zM154.649 213.675h-7.583v7.524h7.583v-7.524zM154.649 228.723h-7.583v7.524h7.583v-7.524zM154.649 236.247h-7.583v7.524h7.583v-7.524z" fill="#fff"/>
        <path d="M154.649 243.771h-7.583v7.524h7.583v-7.524zM154.649 258.819h-7.583v7.525h7.583v-7.525zM154.649 273.868h-7.583v7.524h7.583v-7.524zM162.231 3h-7.582v7.524h7.582V3z" fill="#fff"/>
        <path d="M162.231 10.524h-7.582v7.524h7.582v-7.524zM162.231 18.048h-7.582v7.524h7.582v-7.524zM162.231 33.096h-7.582v7.525h7.582v-7.525zM162.231 48.145h-7.582v7.524h7.582v-7.524z" fill="#fff"/>
        <path d="M162.231 55.669h-7.582v7.524h7.582v-7.524zM162.231 78.241h-7.582v7.524h7.582v-7.524zM162.231 85.765h-7.582v7.524h7.582v-7.524zM162.231 115.862h-7.582v7.524h7.582v-7.524zM162.231 123.386h-7.582v7.524h7.582v-7.524zM162.231 130.91h-7.582v7.524h7.582v-7.524zM162.231 138.434h-7.582v7.524h7.582v-7.524zM162.231 145.958h-7.582v7.524h7.582v-7.524zM162.231 161.006h-7.582v7.524h7.582v-7.524zM162.231 168.53h-7.582v7.524h7.582v-7.524zM162.231 176.054h-7.582v7.524h7.582v-7.524zM162.231 183.578h-7.582v7.525h7.582v-7.525zM162.231 228.723h-7.582v7.524h7.582v-7.524zM162.231 258.819h-7.582v7.525h7.582v-7.525zM162.231 266.344h-7.582v7.524h7.582v-7.524zM162.231 273.868h-7.582v7.524h7.582v-7.524zM169.814 10.524h-7.583v7.524h7.583v-7.524zM169.814 18.048h-7.583v7.524h7.583v-7.524z" fill="#fff"/>
        <path d="M169.814 25.572h-7.583v7.524h7.583v-7.524zM169.814 40.62h-7.583v7.525h7.583V40.62zM169.814 55.669h-7.583v7.524h7.583v-7.524zM169.814 63.193h-7.583v7.524h7.583v-7.524zM169.814 85.765h-7.583v7.524h7.583v-7.524zM169.814 93.29h-7.583v7.523h7.583v-7.524zM169.814 115.862h-7.583v7.524h7.583v-7.524zM169.814 123.386h-7.583v7.524h7.583v-7.524zM169.814 130.91h-7.583v7.524h7.583v-7.524zM169.814 145.958h-7.583v7.524h7.583v-7.524zM169.814 176.054h-7.583v7.524h7.583v-7.524zM169.814 191.103h-7.583v7.524h7.583v-7.524zM169.814 198.627h-7.583v7.524h7.583v-7.524zM169.814 206.151h-7.583v7.524h7.583v-7.524zM169.814 243.771h-7.583v7.524h7.583v-7.524zM169.814 266.344h-7.583v7.524h7.583v-7.524zM177.396 3h-7.582v7.524h7.582V3zM177.396 18.048h-7.582v7.524h7.582v-7.524zM177.396 40.62h-7.582v7.525h7.582V40.62zM177.396 48.145h-7.582v7.524h7.582v-7.524z" fill="#fff"/>
        <path d="M177.396 55.669h-7.582v7.524h7.582v-7.524zM177.396 63.193h-7.582v7.524h7.582v-7.524zM177.396 93.29h-7.582v7.523h7.582v-7.524zM177.396 100.813h-7.582v7.524h7.582v-7.524zM177.396 115.862h-7.582v7.524h7.582v-7.524zM177.396 123.386h-7.582v7.524h7.582v-7.524zM177.396 145.958h-7.582v7.524h7.582v-7.524zM177.396 153.482h-7.582v7.524h7.582v-7.524zM177.396 168.53h-7.582v7.524h7.582v-7.524zM177.396 176.054h-7.582v7.524h7.582v-7.524zM177.396 183.578h-7.582v7.525h7.582v-7.525zM177.396 191.103h-7.582v7.524h7.582v-7.524zM177.396 206.151h-7.582v7.524h7.582v-7.524zM177.396 213.675h-7.582v7.524h7.582v-7.524zM177.396 228.723h-7.582v7.524h7.582v-7.524zM177.396 258.819h-7.582v7.525h7.582v-7.525zM177.396 266.344h-7.582v7.524h7.582v-7.524zM184.978 3h-7.582v7.524h7.582V3z" fill="#fff"/>
        <path d="M184.978 10.524h-7.582v7.524h7.582v-7.524zM184.978 40.62h-7.582v7.525h7.582V40.62zM184.978 55.669h-7.582v7.524h7.582v-7.524zM184.978 78.241h-7.582v7.524h7.582v-7.524zM184.978 93.29h-7.582v7.523h7.582v-7.524zM184.978 100.813h-7.582v7.524h7.582v-7.524zM184.978 130.91h-7.582v7.524h7.582v-7.524zM184.978 138.434h-7.582v7.524h7.582v-7.524zM184.978 161.006h-7.582v7.524h7.582v-7.524zM184.978 168.53h-7.582v7.524h7.582v-7.524zM184.978 176.054h-7.582v7.524h7.582v-7.524zM184.978 198.627h-7.582v7.524h7.582v-7.524zM184.978 213.675h-7.582v7.524h7.582v-7.524zM184.978 221.199h-7.582v7.524h7.582v-7.524zM184.978 228.723h-7.582v7.524h7.582v-7.524zM184.978 236.247h-7.582v7.524h7.582v-7.524zM184.978 258.819h-7.582v7.525h7.582v-7.525zM184.978 266.344h-7.582v7.524h7.582v-7.524zM192.561 18.048h-7.583v7.524h7.583v-7.524z" fill="#fff"/>
        <path d="M192.561 25.572h-7.583v7.524h7.583v-7.524zM192.561 48.145h-7.583v7.524h7.583v-7.524zM192.561 70.717h-7.583v7.524h7.583v-7.524zM192.561 78.241h-7.583v7.524h7.583v-7.524zM192.561 85.765h-7.583v7.524h7.583v-7.524zM192.561 108.337h-7.583v7.525h7.583v-7.525zM192.561 153.482h-7.583v7.524h7.583v-7.524zM192.561 161.006h-7.583v7.524h7.583v-7.524zM192.561 168.53h-7.583v7.524h7.583v-7.524zM192.561 176.054h-7.583v7.524h7.583v-7.524zM192.561 206.151h-7.583v7.524h7.583v-7.524zM192.561 221.199h-7.583v7.524h7.583v-7.524zM192.561 228.723h-7.583v7.524h7.583v-7.524zM192.561 236.247h-7.583v7.524h7.583v-7.524zM192.561 251.295h-7.583v7.524h7.583v-7.524zM192.561 258.819h-7.583v7.525h7.583v-7.525zM192.561 266.344h-7.583v7.524h7.583v-7.524zM192.561 273.868h-7.583v7.524h7.583v-7.524zM200.143 3h-7.582v7.524h7.582V3z" fill="#fff"/>
        <path d="M200.143 10.524h-7.582v7.524h7.582v-7.524zM200.143 18.048h-7.582v7.524h7.582v-7.524zM200.143 55.669h-7.582v7.524h7.582v-7.524zM200.143 63.193h-7.582v7.524h7.582v-7.524zM200.143 85.765h-7.582v7.524h7.582v-7.524zM200.143 93.29h-7.582v7.523h7.582v-7.524zM200.143 100.813h-7.582v7.524h7.582v-7.524zM200.143 108.337h-7.582v7.525h7.582v-7.525z" fill="#fff"/>
        <path d="M200.143 115.862h-7.582v7.524h7.582v-7.524zM200.143 138.434h-7.582v7.524h7.582v-7.524zM200.143 153.482h-7.582v7.524h7.582v-7.524zM200.143 161.006h-7.582v7.524h7.582v-7.524zM200.143 176.054h-7.582v7.524h7.582v-7.524zM200.143 191.103h-7.582v7.524h7.582v-7.524zM200.143 206.151h-7.582v7.524h7.582v-7.524zM200.143 213.675h-7.582v7.524h7.582v-7.524zM200.143 243.771h-7.582v7.524h7.582v-7.524zM207.726 33.096h-7.583v7.525h7.583v-7.525zM207.726 48.145h-7.583v7.524h7.583v-7.524zM207.726 78.241h-7.583v7.524h7.583v-7.524zM207.726 85.765h-7.583v7.524h7.583v-7.524zM207.726 108.337h-7.583v7.525h7.583v-7.525z" fill="#fff"/>
        <path d="M207.726 115.862h-7.583v7.524h7.583v-7.524zM207.726 138.434h-7.583v7.524h7.583v-7.524zM207.726 176.054h-7.583v7.524h7.583v-7.524zM207.726 183.578h-7.583v7.525h7.583v-7.525zM207.726 206.151h-7.583v7.524h7.583v-7.524zM207.726 221.199h-7.583v7.524h7.583v-7.524zM207.726 236.247h-7.583v7.524h7.583v-7.524z" fill="#fff"/>
        <path d="M207.726 243.771h-7.583v7.524h7.583v-7.524zM207.726 266.344h-7.583v7.524h7.583v-7.524zM215.308 18.048h-7.582v7.524h7.582v-7.524zM215.308 63.193h-7.582v7.524h7.582v-7.524zM215.308 70.717h-7.582v7.524h7.582v-7.524zM215.308 78.241h-7.582v7.524h7.582v-7.524zM215.308 85.765h-7.582v7.524h7.582v-7.524zM215.308 108.337h-7.582v7.525h7.582v-7.525zM215.308 123.386h-7.582v7.524h7.582v-7.524zM215.308 161.006h-7.582v7.524h7.582v-7.524zM215.308 213.675h-7.582v7.524h7.582v-7.524zM215.308 228.723h-7.582v7.524h7.582v-7.524zM215.308 236.247h-7.582v7.524h7.582v-7.524z" fill="#fff"/>
        <path d="M215.308 243.771h-7.582v7.524h7.582v-7.524zM215.308 258.819h-7.582v7.525h7.582v-7.525zM222.891 3h-7.583v7.524h7.583V3z" fill="#fff"/>
        <path d="M222.891 10.524h-7.583v7.524h7.583v-7.524zM222.891 25.572h-7.583v7.524h7.583v-7.524zM222.891 48.145h-7.583v7.524h7.583v-7.524zM222.891 63.193h-7.583v7.524h7.583v-7.524zM222.891 78.241h-7.583v7.524h7.583v-7.524zM222.891 85.765h-7.583v7.524h7.583v-7.524zM222.891 115.862h-7.583v7.524h7.583v-7.524zM222.891 123.386h-7.583v7.524h7.583v-7.524zM222.891 153.482h-7.583v7.524h7.583v-7.524zM222.891 161.006h-7.583v7.524h7.583v-7.524zM222.891 168.53h-7.583v7.524h7.583v-7.524zM222.891 183.578h-7.583v7.525h7.583v-7.525zM222.891 213.675h-7.583v7.524h7.583v-7.524zM222.891 221.199h-7.583v7.524h7.583v-7.524zM222.891 228.723h-7.583v7.524h7.583v-7.524zM222.891 236.247h-7.583v7.524h7.583v-7.524z" fill="#fff"/>
        <path d="M222.891 243.771h-7.583v7.524h7.583v-7.524zM222.891 258.819h-7.583v7.525h7.583v-7.525zM222.891 266.344h-7.583v7.524h7.583v-7.524zM222.891 273.868h-7.583v7.524h7.583v-7.524zM230.473 63.193h-7.582v7.524h7.582v-7.524zM230.473 78.241h-7.582v7.524h7.582v-7.524zM230.473 85.765h-7.582v7.524h7.582v-7.524zM230.473 93.29h-7.582v7.523h7.582v-7.524zM230.473 100.813h-7.582v7.524h7.582v-7.524zM230.473 123.386h-7.582v7.524h7.582v-7.524zM230.473 130.91h-7.582v7.524h7.582v-7.524zM230.473 153.482h-7.582v7.524h7.582v-7.524zM230.473 176.054h-7.582v7.524h7.582v-7.524zM230.473 198.627h-7.582v7.524h7.582v-7.524zM230.473 213.675h-7.582v7.524h7.582v-7.524zM230.473 243.771h-7.582v7.524h7.582v-7.524z" fill="#fff"/>
        <path d="M230.473 251.295h-7.582v7.524h7.582v-7.524zM238.055 70.717h-7.582v7.524h7.582v-7.524zM238.055 78.241h-7.582v7.524h7.582v-7.524zM238.055 93.29h-7.582v7.523h7.582v-7.524zM238.055 100.813h-7.582v7.524h7.582v-7.524zM238.055 108.337h-7.582v7.525h7.582v-7.525zM238.055 123.386h-7.582v7.524h7.582v-7.524zM238.055 145.958h-7.582v7.524h7.582v-7.524zM238.055 161.006h-7.582v7.524h7.582v-7.524zM238.055 168.53h-7.582v7.524h7.582v-7.524zM238.055 176.054h-7.582v7.524h7.582v-7.524zM238.055 191.103h-7.582v7.524h7.582v-7.524zM238.055 198.627h-7.582v7.524h7.582v-7.524zM238.055 213.675h-7.582v7.524h7.582v-7.524zM238.055 228.723h-7.582v7.524h7.582v-7.524zM238.055 243.771h-7.582v7.524h7.582v-7.524z" fill="#fff"/>
        <path d="M238.055 251.295h-7.582v7.524h7.582v-7.524zM238.055 258.819h-7.582v7.525h7.582v-7.525zM245.638 85.765h-7.583v7.524h7.583v-7.524zM245.638 93.29h-7.583v7.523h7.583v-7.524zM245.638 115.862h-7.583v7.524h7.583v-7.524zM245.638 130.91h-7.583v7.524h7.583v-7.524zM245.638 138.434h-7.583v7.524h7.583v-7.524zM245.638 145.958h-7.583v7.524h7.583v-7.524zM245.638 153.482h-7.583v7.524h7.583v-7.524zM245.638 161.006h-7.583v7.524h7.583v-7.524zM245.638 176.054h-7.583v7.524h7.583v-7.524zM245.638 183.578h-7.583v7.525h7.583v-7.525zM245.638 198.627h-7.583v7.524h7.583v-7.524zM245.638 213.675h-7.583v7.524h7.583v-7.524zM245.638 243.771h-7.583v7.524h7.583v-7.524zM245.638 258.819h-7.583v7.525h7.583v-7.525zM245.638 273.868h-7.583v7.524h7.583v-7.524zM253.22 63.193h-7.582v7.524h7.582v-7.524zM253.22 85.765h-7.582v7.524h7.582v-7.524zM253.22 115.862h-7.582v7.524h7.582v-7.524zM253.22 138.434h-7.582v7.524h7.582v-7.524zM253.22 145.958h-7.582v7.524h7.582v-7.524zM253.22 153.482h-7.582v7.524h7.582v-7.524zM253.22 176.054h-7.582v7.524h7.582v-7.524zM253.22 183.578h-7.582v7.525h7.582v-7.525zM253.22 213.675h-7.582v7.524h7.582v-7.524zM253.22 221.199h-7.582v7.524h7.582v-7.524zM253.22 228.723h-7.582v7.524h7.582v-7.524zM253.22 236.247h-7.582v7.524h7.582v-7.524z" fill="#fff"/>
        <path d="M253.22 243.771h-7.582v7.524h7.582v-7.524z" fill="#fff"/>
        <path d="M253.22 251.295h-7.582v7.524h7.582v-7.524zM253.22 258.819h-7.582v7.525h7.582v-7.525zM253.22 266.344h-7.582v7.524h7.582v-7.524zM253.22 273.868h-7.582v7.524h7.582v-7.524zM260.803 78.241h-7.583v7.524h7.583v-7.524zM260.803 93.29h-7.583v7.523h7.583v-7.524zM260.803 108.337h-7.583v7.525h7.583v-7.525z" fill="#fff"/>
        <path d="M260.803 115.862h-7.583v7.524h7.583v-7.524zM260.803 130.91h-7.583v7.524h7.583v-7.524zM260.803 145.958h-7.583v7.524h7.583v-7.524zM260.803 161.006h-7.583v7.524h7.583v-7.524zM260.803 168.53h-7.583v7.524h7.583v-7.524zM260.803 183.578h-7.583v7.525h7.583v-7.525zM260.803 191.103h-7.583v7.524h7.583v-7.524zM260.803 206.151h-7.583v7.524h7.583v-7.524zM260.803 213.675h-7.583v7.524h7.583v-7.524zM260.803 228.723h-7.583v7.524h7.583v-7.524zM260.803 251.295h-7.583v7.524h7.583v-7.524zM260.803 266.344h-7.583v7.524h7.583v-7.524zM268.385 108.337h-7.582v7.525h7.582v-7.525zM268.385 130.91h-7.582v7.524h7.582v-7.524zM268.385 138.434h-7.582v7.524h7.582v-7.524zM268.385 145.958h-7.582v7.524h7.582v-7.524zM268.385 161.006h-7.582v7.524h7.582v-7.524zM268.385 168.53h-7.582v7.524h7.582v-7.524zM268.385 176.054h-7.582v7.524h7.582v-7.524zM268.385 183.578h-7.582v7.525h7.582v-7.525zM268.385 228.723h-7.582v7.524h7.582v-7.524zM268.385 236.247h-7.582v7.524h7.582v-7.524zM268.385 266.344h-7.582v7.524h7.582v-7.524zM275.968 63.193h-7.583v7.524h7.583v-7.524zM275.968 70.717h-7.583v7.524h7.583v-7.524zM275.968 85.765h-7.583v7.524h7.583v-7.524zM275.968 108.337h-7.583v7.525h7.583v-7.525z" fill="#fff"/>
        <path d="M275.968 115.862h-7.583v7.524h7.583v-7.524zM275.968 145.958h-7.583v7.524h7.583v-7.524zM275.968 153.482h-7.583v7.524h7.583v-7.524zM275.968 161.006h-7.583v7.524h7.583v-7.524zM275.968 198.627h-7.583v7.524h7.583v-7.524zM275.968 206.151h-7.583v7.524h7.583v-7.524zM275.968 228.723h-7.583v7.524h7.583v-7.524zM275.968 258.819h-7.583v7.525h7.583v-7.525zM275.968 266.344h-7.583v7.524h7.583v-7.524zM283.55 78.241h-7.582v7.524h7.582v-7.524zM283.55 93.29h-7.582v7.523h7.582v-7.524zM283.55 100.813h-7.582v7.524h7.582v-7.524zM283.55 108.337h-7.582v7.525h7.582v-7.525zM283.55 123.386h-7.582v7.524h7.582v-7.524zM283.55 138.434h-7.582v7.524h7.582v-7.524zM283.55 153.482h-7.582v7.524h7.582v-7.524zM283.55 161.006h-7.582v7.524h7.582v-7.524zM283.55 168.53h-7.582v7.524h7.582v-7.524zM283.55 183.578h-7.582v7.525h7.582v-7.525zM283.55 206.151h-7.582v7.524h7.582v-7.524zM283.55 236.247h-7.582v7.524h7.582v-7.524z" fill="#fff"/>
        <path d="M283.55 243.771h-7.582v7.524h7.582v-7.524zM283.55 258.819h-7.582v7.525h7.582v-7.525zM283.55 266.344h-7.582v7.524h7.582v-7.524zM283.55 273.868h-7.582v7.524h7.582v-7.524z" fill="#fff"/>
        <path fill-rule="evenodd" clip-rule="evenodd" d="M3 3v52.669h53.077V3H3zm7.582 7.524h37.913v37.62H10.582v-37.62z" fill="#fff"/>
        <path d="M25.747 18.048h-7.582v7.524h7.582v-7.524z" fill="#fff"/>
        <path d="M25.747 25.572h-7.582v7.524h7.582v-7.524zM25.747 33.096h-7.582v7.525h7.582v-7.525zM33.33 18.048h-7.583v7.524h7.583v-7.524z" fill="#fff"/>
        <path d="M33.33 25.572h-7.583v7.524h7.583v-7.524zM33.33 33.096h-7.583v7.525h7.583v-7.525zM40.912 18.048H33.33v7.524h7.582v-7.524z" fill="#fff"/>
        <path d="M40.912 25.572H33.33v7.524h7.582v-7.524zM40.912 33.096H33.33v7.525h7.582v-7.525z" fill="#fff"/>
        <path fill-rule="evenodd" clip-rule="evenodd" d="M283.55 3h-53.077v52.669h53.077V3zm-7.583 7.524v37.62h-37.912v-37.62h37.912z" fill="#fff"/>
        <path d="M253.22 18.048h-7.582v7.524h7.582v-7.524z" fill="#fff"/>
        <path d="M253.22 25.572h-7.582v7.524h7.582v-7.524zM253.22 33.096h-7.582v7.525h7.582v-7.525zM260.803 18.048h-7.583v7.524h7.583v-7.524z" fill="#fff"/>
        <path d="M260.803 25.572h-7.583v7.524h7.583v-7.524zM260.803 33.096h-7.583v7.525h7.583v-7.525zM268.385 18.048h-7.582v7.524h7.582v-7.524z" fill="#fff"/>
        <path d="M268.385 25.572h-7.582v7.524h7.582v-7.524zM268.385 33.096h-7.582v7.525h7.582v-7.525z" fill="#fff"/>
        <path fill-rule="evenodd" clip-rule="evenodd" d="M3 281.392h53.077v-52.669H3v52.669zm7.582-7.524v-37.621h37.913v37.621H10.582z" fill="#fff"/>
        <path d="M25.747 243.771h-7.582v7.524h7.582v-7.524z" fill="#fff"/>
        <path d="M25.747 251.295h-7.582v7.524h7.582v-7.524zM25.747 258.819h-7.582v7.525h7.582v-7.525zM33.33 243.771h-7.583v7.524h7.583v-7.524z" fill="#fff"/>
        <path d="M33.33 251.295h-7.583v7.524h7.583v-7.524zM33.33 258.819h-7.583v7.525h7.583v-7.525zM40.912 243.771H33.33v7.524h7.582v-7.524z" fill="#fff"/>
        <path d="M40.912 251.295H33.33v7.524h7.582v-7.524zM40.912 258.819H33.33v7.525h7.582v-7.525z" fill="#fff"/>
    </mask>
    <g mask="url(#3fwipfh9oa)">
        <path d="M285.446 1.119H1.104v282.154h284.342V1.119z" fill="#000"/>
    </g>
    <path fill="#fff" d="M93 92h100v100H93z"/>
    <path d="M162.572 159.533c-13.244-10.19-11.773-19.034-11.939-22.668h8.072c.944-1.772 1.424-3.41 1.424-5.449l-9.155-6.086a12.824 12.824 0 0 0 5.258-10.367c0-5.373-3.279-9.97-7.93-11.871-1.466-.598-11.84 33.773-11.84 33.773-.038.79-.042 1.819-.042 3.059 0 3.415 8.319 2.897 7.872 5.914-.664 4.511-.802 7.934-4.65 18.77-2.596 7.312-19.917 0-21.156 3.592-.859 2.499-1.319 5.296-1.319 8.312 0 .321.692 5.162 26.38 5.162s26.381-4.836 26.381-5.162c0-7.35-2.719-13.407-7.356-16.974v-.005z" fill="#5D9948"/>
    <path d="M143.082 164.106c1.429-6.556 2.696-13.547 3.465-17.732.963-5.224-6.896-6.157-10.123-6.636-.147 4.462-1.381 11.702-11.902 19.795-2.838 2.183-4.949 5.3-6.169 9.074 2.838 1.398 6.63 2.231 12.472 2.231 3.749 0 10.691.455 12.257-6.732zM148.597 136.865c1.243-3.261 1.082-5.449 1.082-5.449l-5.187-6.086c5.514-2.375 8.831-6.838 8.831-12.038 0-4.152-1.959-7.839-4.997-10.176a12.55 12.55 0 0 0-4.788-.948c-7.004 0-12.685 5.732-12.685 12.8a12.81 12.81 0 0 0 5.258 10.366l-9.154 6.086c0 2.045.479 3.683 1.424 5.449h20.211l.005-.004z" fill="#81B64C"/>
    <path d="M142.427 105.295c7.313 1.144-3.369 9.706-6.738 9.308-3.204-.383-.119-10.381 6.738-9.308z" fill="#B2E068"/>
</svg>
